<?xml version="1.0" encoding="utf-8"?>
<!-- Generator: Adobe Illustrator 27.9.1, SVG Export Plug-In . SVG Version: 6.00 Build 0)  -->
<svg version="1.1" id="Layer_1" xmlns="http://www.w3.org/2000/svg" xmlns:xlink="http://www.w3.org/1999/xlink" x="0px" y="0px"
	 viewBox="0 0 300 81" style="enable-background:new 0 0 300 81;" xml:space="preserve">
<style type="text/css">
	.st0{fill:#6691FF;}
</style>
<g>
	<g>
		<path class="st0" d="M64.92,15.85c-0.1-0.25-0.34-0.38-0.58-0.39c-0.24,0.01-0.48,0.14-0.58,0.39
			c-0.3,0.71-20.07,48.99-20.07,48.99h5.07c1.23,0,1.92-0.56,2.45-1.84l13.13-31.98h0h0l13.13,31.98c0.53,1.28,1.22,1.84,2.45,1.84
			h5.07C84.99,64.85,65.22,16.56,64.92,15.85z"/>
		<rect x="191.45" y="15.9" class="st0" width="6.87" height="49.22"/>
		<path class="st0" d="M11.88,16.19H7.36C5.99,16.19,5,17.12,5,18.66v46.15l22.28,0c2.24,0,3.09-0.87,4.04-2.36
			c0.91-1.43,2.27-4,2.27-4H11.88V16.19z"/>
		<path class="st0" d="M125.25,50.52c0,0-26.75-33.94-27.3-34.62c-0.3-0.37-0.4-0.45-0.65-0.45c-0.38,0-0.55,0.29-0.55,0.64
			c0,0.38,0,1.23,0,1.47v5.02v42.23h6.84V33.46c0,0,22.46,28.49,23.7,30.07c0.78,1,1.47,1.31,2.33,1.31c1.02,0,2.28,0,2.28,0V16.19
			h-6.7L125.25,50.52z"/>
		<g>
			<path class="st0" d="M175.95,60.81c-0.92-1.44-1.76-2.28-3.85-2.34c-0.05,0-0.09-0.01-0.14-0.01h0l-16.92,0l0-15.46h19.73v-6.01
				h-19.72l0-14.43l11.31,0l5.64,0c2.17-0.02,3.02-0.88,3.95-2.34c0.96-1.5,2.28-4.03,2.28-4.03h-11.87H148.1v48.64h18.26h11.79
				c0,0-0.79-1.6-1.55-2.97C176.37,61.49,176.15,61.13,175.95,60.81z"/>
		</g>
		<g>
			<path class="st0" d="M292.72,60.81c-0.92-1.44-1.76-2.28-3.85-2.34c-0.05,0-0.09-0.01-0.14-0.01h0l-16.92,0l0-15.46h19.73v-6.01
				h-19.72l0-14.43l11.31,0l5.64,0c2.17-0.02,3.02-0.88,3.95-2.34c0.96-1.5,2.28-4.03,2.28-4.03h-11.87h-18.26v48.64h18.26h11.79
				c0,0-0.79-1.6-1.55-2.97C293.15,61.49,292.93,61.13,292.72,60.81z"/>
		</g>
		<g>
			<path class="st0" d="M249.91,27.28c-0.92-2.81-2.73-5.59-4.73-7.54c-1.48-1.44-2.76-2.3-4.67-3.17
				c-2.47-1.13-5.46-1.67-8.49-1.67c-13.73,0-20.65,11.51-20.65,25.72c0,8.33,1.89,15.05,6.52,19.75c3.27,3.32,7.91,5.73,14.13,5.73
				c7.95,0,13.93-4.2,16.42-9.13c0.6-1.19,1.08-2.11,1.47-3.43c1.15-3.81,1.18-8.21,1.18-12.93c0-0.05-0.01-1.68-0.01-1.68
				l-7.79,0.02l-11.51,0.03c0.32,0.62,1.09,1.97,1.99,3.44c0.96,1.58,1.85,2.54,4.16,2.54l6.08,0.01c0,0,0,1.11-0.11,2.44
				c-0.29,3.52-1.05,6.57-3.72,9.03c-2.15,1.98-5.27,2.84-8.16,2.84c-3.7,0-6.7-1.36-9.07-3.77c-3.88-3.95-4.52-10.14-4.52-14.9
				c0-4.4,1.24-19,13.86-19c1.8,0,3.59,0.26,5.21,1.09c1.85,0.94,3.38,2.37,4.46,4.11c0.86,1.4,1.62,2.73,3.46,2.73h5.2
				C250.55,29.24,250,27.57,249.91,27.28z"/>
		</g>
	</g>
</g>
</svg>
